name C:\Users\Nicos\Desktop\Gil_twoSteps\Study2\ExperimentalData\IK_Splined\twoSteps_IK_BSplines_25_meshInts_study2_p02_s_01_lowIK_modROI.mot
datacolumns 38
datarows 7
range 0.32800000 0.35668791
endheader
                time	         pelvis_tilt	         pelvis_list	     pelvis_rotation	           pelvis_tx	           pelvis_ty	           pelvis_tz	       hip_flexion_r	     hip_adduction_r	      hip_rotation_r	        knee_angle_r	       ankle_angle_r	    subtalar_angle_r	         mtp_angle_r	       hip_flexion_l	     hip_adduction_l	      hip_rotation_l	        knee_angle_l	       ankle_angle_l	    subtalar_angle_l	         mtp_angle_l	    lumbar_extension	      lumbar_bending	     lumbar_rotation	          arm_flex_r	           arm_add_r	           arm_rot_r	        elbow_flex_r	           pro_sup_r	        wrist_flex_r	         wrist_dev_r	          arm_flex_l	           arm_add_l	           arm_rot_l	        elbow_flex_l	           pro_sup_l	        wrist_flex_l	         wrist_dev_l	
          0.32800000	        -23.67920834	         -6.76127446	         10.73961891	         -1.35469776	          0.83698137	          0.29526774	         77.13524629	         -5.54050584	         -4.71383152	        -83.72263195	          5.33067839	        -22.69907711	         -2.39450192	         -7.24023929	         -5.28973855	          8.38901665	        -36.23893594	        -35.87268038	          1.01008844	          4.88654493	        -21.90794526	         17.73068227	         -0.73877897	        -70.48468768	          4.27784817	        -32.21750007	         70.01305390	         71.40877903	         -3.58662530	          7.60534955	         31.47878954	         -6.60404074	         19.94822497	        139.19983789	         44.78856535	         -6.57285773	          4.65130345	
          0.33070409	        -23.37091631	         -6.49651697	         10.62368385	         -1.34051251	          0.83917056	          0.29566016	         74.92690109	         -5.26985701	         -4.74670099	        -82.41455608	          5.59302418	        -22.19395407	         -2.59357791	         -6.75400193	         -4.94500021	          7.07285290	        -38.16829398	        -36.02356838	          0.30058819	          4.84745308	        -22.56711667	         17.49162776	         -1.08108710	        -69.44724064	          2.76649772	        -31.64394266	         71.19153613	         71.31936871	         -3.52246821	          7.61911218	         29.06765431	         -7.06612098	         18.15454237	        136.81721549	         44.14992638	         -6.93962192	          4.75007974	
          0.33924791	        -22.52110770	         -5.68873032	          9.95392269	         -1.29711726	          0.84494757	          0.29735575	         68.49079452	         -4.41944289	         -4.54620295	        -78.79438532	          6.99408828	        -20.74703760	         -2.70505826	         -4.62498497	         -3.98566389	          3.23154389	        -44.64315584	        -35.85778839	         -1.91211929	          4.76267975	        -24.39007439	         16.59838324	         -2.04323813	        -65.05213162	         -1.16039891	        -29.51194084	         73.88387294	         71.19915673	         -3.33968595	          7.76208901	         21.69392580	         -8.39546596	         12.99399208	        128.72397249	         43.00077287	         -8.00114512	          5.21157871	
          0.34544000	        -22.05206608	         -5.13725298	          9.10991352	         -1.26735001	          0.84778735	          0.29912312	         64.46600908	         -3.80869421	         -4.04122805	        -76.77669889	          8.68564461	        -19.87454967	         -2.17428101	         -2.38156747	         -3.44389317	          0.82245954	        -49.78351388	        -34.97834359	         -3.48146921	          4.74702248	        -25.40429107	         15.78801167	         -2.59944902	        -60.54655964	         -3.00386381	        -27.58886961	         74.61653698	         71.30381604	         -3.23076510	          7.98328500	         16.63875916	         -9.20451953	          9.85276156	        122.19060109	         43.19448906	         -8.65549307	          5.72260693	
          0.34544000	        -22.05206608	         -5.13725298	          9.10991352	         -1.26735001	          0.84778735	          0.29912312	         64.46600908	         -3.80869421	         -4.04122805	        -76.77669889	          8.68564461	        -19.87454967	         -2.17428101	         -2.38156747	         -3.44389317	          0.82245954	        -49.78351388	        -34.97834359	         -3.48146921	          4.74702248	        -25.40429107	         15.78801167	         -2.59944902	        -60.54655964	         -3.00386381	        -27.58886961	         74.61653698	         71.30381604	         -3.23076510	          7.98328500	         16.63875916	         -9.20451953	          9.85276156	        122.19060109	         43.19448906	         -8.65549307	          5.72260693	
          0.34814409	        -21.84723529	         -4.89642245	          8.74133414	         -1.25435064	          0.84902748	          0.29989494	         62.70838253	         -3.54197984	         -3.82070517	        -75.89557385	          9.42434841	        -19.49353359	         -1.94249022	         -1.40186552	         -3.20730153	         -0.22958925	        -52.02831176	        -34.59428945	         -4.16680539	          4.74018494	        -25.84720019	         15.43412185	         -2.84234669	        -58.57897328	         -3.80890620	        -26.74906310	         74.93649187	         71.34952083	         -3.18319930	          8.07988144	         14.43116443	         -9.55783377	          8.48098405	        119.33747333	         43.27908505	         -8.94124726	          5.94577330	
          0.35668791	        -21.41250754	         -4.16754137	          7.12899767	         -1.21540777	          0.85112805	          0.30302107	         58.00822168	         -2.77246258	         -2.67822993	        -73.83019150	         12.41418183	        -18.52729658	         -0.44189963	          2.66020130	         -2.67678791	         -2.98350905	        -59.49779622	        -32.41427380	         -6.22988517	          4.78697736	        -26.77988314	         14.06931437	         -3.41072760	        -50.67526207	         -5.01287471	        -23.60626397	         74.56534550	         71.69416618	         -3.09102311	          8.51320700	          7.86246611	        -10.40899495	          4.94866684	        109.71599872	         44.86425922	         -9.64810442	          6.88755348	
